<?xml version="1.0" encoding="UTF-8" standalone="no"?>
<!DOCTYPE svg PUBLIC "-//W3C//DTD SVG 1.1//EN"
 "http://www.w3.org/Graphics/SVG/1.1/DTD/svg11.dtd">
<!-- Generated by graphviz version 2.43.0 (0)
 -->
<!-- Title: FileOrganizerSystem Pages: 1 -->
<svg width="720pt" height="180pt"
 viewBox="0.00 0.00 720.00 179.89" xmlns="http://www.w3.org/2000/svg" xmlns:xlink="http://www.w3.org/1999/xlink">
<g id="graph0" class="graph" transform="scale(0.43 0.43) rotate(0) translate(4 416)">
<title>FileOrganizerSystem</title>
<polygon fill="white" stroke="transparent" points="-4,4 -4,-416 1677,-416 1677,4 -4,4"/>
<g id="clust1" class="cluster">
<title>cluster_ui</title>
<polygon fill="lightgrey" stroke="lightgrey" points="605,-329 605,-404 1665,-404 1665,-329 605,-329"/>
<text text-anchor="middle" x="1135" y="-388.8" font-family="Times,serif" font-size="14.00">User Interface Layer</text>
</g>
<g id="clust2" class="cluster">
<title>cluster_core</title>
<polygon fill="lightyellow" stroke="lightyellow" points="344,-174 344,-321 1114,-321 1114,-174 344,-174"/>
<text text-anchor="middle" x="729" y="-305.8" font-family="Times,serif" font-size="14.00">Core Engine</text>
</g>
<g id="clust3" class="cluster">
<title>cluster_features</title>
<polygon fill="lightblue" stroke="lightblue" points="8,-91 8,-166 1584,-166 1584,-91 8,-91"/>
<text text-anchor="middle" x="796" y="-150.8" font-family="Times,serif" font-size="14.00">Feature Modules</text>
</g>
<g id="clust4" class="cluster">
<title>cluster_storage</title>
<polygon fill="lightgreen" stroke="lightgreen" points="1122,-246 1122,-321 1564,-321 1564,-246 1122,-246"/>
<text text-anchor="middle" x="1343" y="-305.8" font-family="Times,serif" font-size="14.00">Data &amp; Persistency</text>
</g>
<g id="clust5" class="cluster">
<title>cluster_os</title>
<polygon fill="pink" stroke="pink" points="101,-8 101,-83 791,-83 791,-8 101,-8"/>
<text text-anchor="middle" x="446" y="-67.8" font-family="Times,serif" font-size="14.00">Operating System &amp; External</text>
</g>
<!-- UI_Main -->
<g id="node1" class="node">
<title>UI_Main</title>
<ellipse fill="none" stroke="black" cx="899" cy="-355" rx="117.78" ry="18"/>
<text text-anchor="middle" x="899" y="-351.3" font-family="Times,serif" font-size="14.00">Main Window (Tkinter)</text>
</g>
<!-- Controller -->
<g id="node6" class="node">
<title>Controller</title>
<ellipse fill="none" stroke="black" cx="899" cy="-272" rx="57.69" ry="18"/>
<text text-anchor="middle" x="899" y="-268.3" font-family="Times,serif" font-size="14.00">Controller</text>
</g>
<!-- UI_Main&#45;&gt;Controller -->
<g id="edge1" class="edge">
<title>UI_Main&#45;&gt;Controller</title>
<path fill="none" stroke="black" d="M899,-336.82C899,-326.19 899,-312.31 899,-300.2"/>
<polygon fill="black" stroke="black" points="902.5,-300.15 899,-290.15 895.5,-300.15 902.5,-300.15"/>
</g>
<!-- UI_Preview -->
<g id="node2" class="node">
<title>UI_Preview</title>
<ellipse fill="none" stroke="black" cx="1408" cy="-355" rx="88.28" ry="18"/>
<text text-anchor="middle" x="1408" y="-351.3" font-family="Times,serif" font-size="14.00">Preview Window</text>
</g>
<!-- UI_Preview&#45;&gt;Controller -->
<g id="edge2" class="edge">
<title>UI_Preview&#45;&gt;Controller</title>
<path fill="none" stroke="black" d="M1360.55,-339.78C1344.63,-335.57 1326.68,-331.45 1310,-329 1225.5,-316.6 1202.7,-331.96 1118,-321 1060.16,-313.51 995.01,-298.35 950.92,-287.06"/>
<polygon fill="black" stroke="black" points="951.57,-283.61 941.01,-284.5 949.81,-290.39 951.57,-283.61"/>
</g>
<!-- UI_Settings -->
<g id="node3" class="node">
<title>UI_Settings</title>
<ellipse fill="none" stroke="black" cx="1168" cy="-355" rx="133.48" ry="18"/>
<text text-anchor="middle" x="1168" y="-351.3" font-family="Times,serif" font-size="14.00">Settings / Category Editor</text>
</g>
<!-- UI_Settings&#45;&gt;Controller -->
<g id="edge3" class="edge">
<title>UI_Settings&#45;&gt;Controller</title>
<path fill="none" stroke="black" d="M1116.13,-338.38C1067.96,-323.88 996.69,-302.42 949.09,-288.08"/>
<polygon fill="black" stroke="black" points="949.89,-284.67 939.31,-285.14 947.87,-291.37 949.89,-284.67"/>
</g>
<!-- UI_Search -->
<g id="node4" class="node">
<title>UI_Search</title>
<ellipse fill="none" stroke="black" cx="1586" cy="-355" rx="71.49" ry="18"/>
<text text-anchor="middle" x="1586" y="-351.3" font-family="Times,serif" font-size="14.00">Search Panel</text>
</g>
<!-- UI_Search&#45;&gt;Controller -->
<g id="edge4" class="edge">
<title>UI_Search&#45;&gt;Controller</title>
<path fill="none" stroke="black" d="M1547.38,-339.68C1534.14,-335.41 1519.09,-331.27 1505,-329 1420.08,-315.29 1203.42,-331.15 1118,-321 1059.91,-314.1 994.54,-298.76 950.47,-287.26"/>
<polygon fill="black" stroke="black" points="951.13,-283.82 940.57,-284.65 949.35,-290.59 951.13,-283.82"/>
</g>
<!-- UI_Theme -->
<g id="node5" class="node">
<title>UI_Theme</title>
<ellipse fill="none" stroke="black" cx="688" cy="-355" rx="75.29" ry="18"/>
<text text-anchor="middle" x="688" y="-351.3" font-family="Times,serif" font-size="14.00">Theme Toggle</text>
</g>
<!-- UI_Theme&#45;&gt;Controller -->
<g id="edge5" class="edge">
<title>UI_Theme&#45;&gt;Controller</title>
<path fill="none" stroke="black" d="M726.21,-339.33C762.19,-325.52 816.08,-304.83 854.09,-290.24"/>
<polygon fill="black" stroke="black" points="855.8,-293.33 863.88,-286.48 853.29,-286.8 855.8,-293.33"/>
</g>
<!-- RulesEngine -->
<g id="node7" class="node">
<title>RulesEngine</title>
<ellipse fill="none" stroke="black" cx="1034" cy="-200" rx="72.29" ry="18"/>
<text text-anchor="middle" x="1034" y="-196.3" font-family="Times,serif" font-size="14.00">Rules Engine</text>
</g>
<!-- Controller&#45;&gt;RulesEngine -->
<g id="edge6" class="edge">
<title>Controller&#45;&gt;RulesEngine</title>
<path fill="none" stroke="black" d="M927.63,-256.15C947.27,-245.97 973.57,-232.33 995.1,-221.17"/>
<polygon fill="black" stroke="black" points="996.74,-224.26 1004.01,-216.55 993.52,-218.05 996.74,-224.26"/>
</g>
<!-- Organizer -->
<g id="node8" class="node">
<title>Organizer</title>
<ellipse fill="none" stroke="black" cx="447" cy="-200" rx="94.78" ry="18"/>
<text text-anchor="middle" x="447" y="-196.3" font-family="Times,serif" font-size="14.00">Organizer Service</text>
</g>
<!-- Controller&#45;&gt;Organizer -->
<g id="edge7" class="edge">
<title>Controller&#45;&gt;Organizer</title>
<path fill="none" stroke="black" d="M847.97,-263.41C780.12,-253.27 656.49,-234.65 551,-218 542.88,-216.72 534.41,-215.36 525.96,-214"/>
<polygon fill="black" stroke="black" points="526.5,-210.54 516.07,-212.4 525.38,-217.45 526.5,-210.54"/>
</g>
<!-- Undo -->
<g id="node9" class="node">
<title>Undo</title>
<ellipse fill="none" stroke="black" cx="864" cy="-200" rx="79.89" ry="18"/>
<text text-anchor="middle" x="864" y="-196.3" font-family="Times,serif" font-size="14.00">Undo Manager</text>
</g>
<!-- Controller&#45;&gt;Undo -->
<g id="edge8" class="edge">
<title>Controller&#45;&gt;Undo</title>
<path fill="none" stroke="black" d="M890.53,-254.05C886.5,-246.01 881.6,-236.2 877.11,-227.23"/>
<polygon fill="black" stroke="black" points="880.24,-225.65 872.64,-218.28 873.98,-228.78 880.24,-225.65"/>
</g>
<!-- Scheduler -->
<g id="node10" class="node">
<title>Scheduler</title>
<ellipse fill="none" stroke="black" cx="663" cy="-200" rx="102.88" ry="18"/>
<text text-anchor="middle" x="663" y="-196.3" font-family="Times,serif" font-size="14.00">Background Worker</text>
</g>
<!-- Controller&#45;&gt;Scheduler -->
<g id="edge9" class="edge">
<title>Controller&#45;&gt;Scheduler</title>
<path fill="none" stroke="black" d="M858.7,-259.05C821.32,-247.96 765.23,-231.32 722.67,-218.7"/>
<polygon fill="black" stroke="black" points="723.57,-215.31 712.98,-215.83 721.57,-222.02 723.57,-215.31"/>
</g>
<!-- CustomCat -->
<g id="node11" class="node">
<title>CustomCat</title>
<ellipse fill="none" stroke="black" cx="1243" cy="-117" rx="129.18" ry="18"/>
<text text-anchor="middle" x="1243" y="-113.3" font-family="Times,serif" font-size="14.00">Custom Category Module</text>
</g>
<!-- RulesEngine&#45;&gt;CustomCat -->
<g id="edge10" class="edge">
<title>RulesEngine&#45;&gt;CustomCat</title>
<path fill="none" stroke="black" d="M1075.17,-185.08C1110.24,-172.16 1160.44,-152.8 1196.84,-138.19"/>
<polygon fill="black" stroke="black" points="1198.29,-141.38 1206.25,-134.39 1195.67,-134.89 1198.29,-141.38"/>
</g>
<!-- FileMove -->
<g id="node12" class="node">
<title>FileMove</title>
<ellipse fill="none" stroke="black" cx="783" cy="-117" rx="96.68" ry="18"/>
<text text-anchor="middle" x="783" y="-113.3" font-family="Times,serif" font-size="14.00">File Move Handler</text>
</g>
<!-- Organizer&#45;&gt;FileMove -->
<g id="edge11" class="edge">
<title>Organizer&#45;&gt;FileMove</title>
<path fill="none" stroke="black" d="M498.23,-184.82C514.93,-180.7 533.65,-176.61 551,-174 606.93,-165.58 623.14,-179.76 678,-166 701.5,-160.1 726.21,-149.08 745.75,-139.08"/>
<polygon fill="black" stroke="black" points="747.39,-142.17 754.63,-134.43 744.14,-135.97 747.39,-142.17"/>
</g>
<!-- Duplicates -->
<g id="node13" class="node">
<title>Duplicates</title>
<ellipse fill="none" stroke="black" cx="343" cy="-117" rx="98.58" ry="18"/>
<text text-anchor="middle" x="343" y="-113.3" font-family="Times,serif" font-size="14.00">Duplicate Detector</text>
</g>
<!-- Organizer&#45;&gt;Duplicates -->
<g id="edge12" class="edge">
<title>Organizer&#45;&gt;Duplicates</title>
<path fill="none" stroke="black" d="M425.7,-182.41C410.38,-170.48 389.52,-154.23 372.58,-141.04"/>
<polygon fill="black" stroke="black" points="374.67,-138.23 364.63,-134.84 370.36,-143.75 374.67,-138.23"/>
</g>
<!-- Stats -->
<g id="node14" class="node">
<title>Stats</title>
<ellipse fill="none" stroke="black" cx="564" cy="-117" rx="104.78" ry="18"/>
<text text-anchor="middle" x="564" y="-113.3" font-family="Times,serif" font-size="14.00">Statistics Generator</text>
</g>
<!-- Organizer&#45;&gt;Stats -->
<g id="edge13" class="edge">
<title>Organizer&#45;&gt;Stats</title>
<path fill="none" stroke="black" d="M470.96,-182.41C488.47,-170.29 512.41,-153.72 531.62,-140.42"/>
<polygon fill="black" stroke="black" points="533.84,-143.13 540.07,-134.56 529.86,-137.38 533.84,-143.13"/>
</g>
<!-- PreviewGen -->
<g id="node15" class="node">
<title>PreviewGen</title>
<ellipse fill="none" stroke="black" cx="997" cy="-117" rx="98.58" ry="18"/>
<text text-anchor="middle" x="997" y="-113.3" font-family="Times,serif" font-size="14.00">Preview Generator</text>
</g>
<!-- Organizer&#45;&gt;PreviewGen -->
<g id="edge14" class="edge">
<title>Organizer&#45;&gt;PreviewGen</title>
<path fill="none" stroke="black" d="M497.11,-184.68C514.08,-180.44 533.23,-176.32 551,-174 625.5,-164.28 815.69,-182.47 889,-166 913.65,-160.46 939.58,-149.15 959.85,-138.89"/>
<polygon fill="black" stroke="black" points="961.47,-141.99 968.74,-134.28 958.25,-135.78 961.47,-141.99"/>
</g>
<!-- SearchIndex -->
<g id="node16" class="node">
<title>SearchIndex</title>
<ellipse fill="none" stroke="black" cx="1483" cy="-117" rx="92.88" ry="18"/>
<text text-anchor="middle" x="1483" y="-113.3" font-family="Times,serif" font-size="14.00">Search &amp; Indexer</text>
</g>
<!-- Organizer&#45;&gt;SearchIndex -->
<g id="edge15" class="edge">
<title>Organizer&#45;&gt;SearchIndex</title>
<path fill="none" stroke="black" d="M496.83,-184.6C513.86,-180.33 533.12,-176.21 551,-174 596.77,-168.35 1336.05,-176.28 1381,-166 1404.28,-160.68 1428.55,-149.52 1447.56,-139.3"/>
<polygon fill="black" stroke="black" points="1449.39,-142.29 1456.45,-134.39 1446.01,-136.17 1449.39,-142.29"/>
</g>
<!-- Recycle -->
<g id="node17" class="node">
<title>Recycle</title>
<ellipse fill="none" stroke="black" cx="121" cy="-117" rx="105.08" ry="18"/>
<text text-anchor="middle" x="121" y="-113.3" font-family="Times,serif" font-size="14.00">Recycle Bin Handler</text>
</g>
<!-- Organizer&#45;&gt;Recycle -->
<g id="edge16" class="edge">
<title>Organizer&#45;&gt;Recycle</title>
<path fill="none" stroke="black" d="M364.7,-190.93C325.02,-185.85 277.02,-177.92 235,-166 210.46,-159.04 184.14,-148.2 162.98,-138.58"/>
<polygon fill="black" stroke="black" points="164.2,-135.29 153.65,-134.27 161.26,-141.64 164.2,-135.29"/>
</g>
<!-- Undo&#45;&gt;FileMove -->
<g id="edge20" class="edge">
<title>Undo&#45;&gt;FileMove</title>
<path fill="none" stroke="black" d="M847.22,-182.22C835.6,-170.6 819.95,-154.95 807.02,-142.02"/>
<polygon fill="black" stroke="black" points="809.31,-139.36 799.76,-134.76 804.36,-144.31 809.31,-139.36"/>
</g>
<!-- CustomCat&#45;&gt;RulesEngine -->
<g id="edge17" class="edge">
<title>CustomCat&#45;&gt;RulesEngine</title>
<path fill="none" stroke="black" d="M1196.39,-133.93C1160.6,-147.2 1111.68,-166.12 1076.86,-180.14"/>
<polygon fill="black" stroke="black" points="1075.39,-176.96 1067.43,-183.95 1078.02,-183.45 1075.39,-176.96"/>
</g>
<!-- FileSystem -->
<g id="node21" class="node">
<title>FileSystem</title>
<ellipse fill="none" stroke="black" cx="690" cy="-34" rx="92.88" ry="18"/>
<text text-anchor="middle" x="690" y="-30.3" font-family="Times,serif" font-size="14.00">Local File System</text>
</g>
<!-- FileMove&#45;&gt;FileSystem -->
<g id="edge24" class="edge">
<title>FileMove&#45;&gt;FileSystem</title>
<path fill="none" stroke="black" d="M763.73,-99.22C750.26,-87.49 732.09,-71.66 717.16,-58.65"/>
<polygon fill="black" stroke="black" points="719.08,-55.69 709.24,-51.76 714.49,-60.97 719.08,-55.69"/>
</g>
<!-- ExtLibs -->
<g id="node23" class="node">
<title>ExtLibs</title>
<ellipse fill="none" stroke="black" cx="458" cy="-34" rx="120.78" ry="18"/>
<text text-anchor="middle" x="458" y="-30.3" font-family="Times,serif" font-size="14.00">matplotlib, hashlib, etc.</text>
</g>
<!-- Duplicates&#45;&gt;ExtLibs -->
<g id="edge26" class="edge">
<title>Duplicates&#45;&gt;ExtLibs</title>
<path fill="none" stroke="black" d="M366.55,-99.41C383.64,-87.37 406.98,-70.94 425.8,-57.68"/>
<polygon fill="black" stroke="black" points="427.93,-60.46 434.09,-51.84 423.9,-54.74 427.93,-60.46"/>
</g>
<!-- Stats&#45;&gt;ExtLibs -->
<g id="edge27" class="edge">
<title>Stats&#45;&gt;ExtLibs</title>
<path fill="none" stroke="black" d="M542.04,-99.22C526.4,-87.27 505.21,-71.07 488.01,-57.93"/>
<polygon fill="black" stroke="black" points="490.01,-55.05 479.94,-51.76 485.76,-60.61 490.01,-55.05"/>
</g>
<!-- PreviewGen&#45;&gt;UI_Preview -->
<g id="edge18" class="edge">
<title>PreviewGen&#45;&gt;UI_Preview</title>
<path fill="none" stroke="black" d="M1027.88,-134.18C1049.06,-144.66 1078.1,-157.84 1105,-166 1304.83,-226.65 1433.49,-86.26 1568,-246 1589.47,-271.5 1590.01,-295.97 1568,-321 1558.83,-331.43 1519.64,-326.39 1506,-329 1493.55,-331.38 1480.33,-334.41 1467.76,-337.53"/>
<polygon fill="black" stroke="black" points="1466.68,-334.19 1457.84,-340.04 1468.4,-340.98 1466.68,-334.19"/>
</g>
<!-- SearchIndex&#45;&gt;UI_Search -->
<g id="edge19" class="edge">
<title>SearchIndex&#45;&gt;UI_Search</title>
<path fill="none" stroke="black" d="M1539.31,-131.43C1561.58,-139.8 1584.93,-153.1 1598,-174 1627.6,-221.33 1610.16,-290.01 1596.84,-327.37"/>
<polygon fill="black" stroke="black" points="1593.45,-326.44 1593.23,-337.03 1600.01,-328.89 1593.45,-326.44"/>
</g>
<!-- OSCalls -->
<g id="node22" class="node">
<title>OSCalls</title>
<ellipse fill="none" stroke="black" cx="214" cy="-34" rx="105.08" ry="18"/>
<text text-anchor="middle" x="214" y="-30.3" font-family="Times,serif" font-size="14.00">os/shutil/send2trash</text>
</g>
<!-- Recycle&#45;&gt;OSCalls -->
<g id="edge25" class="edge">
<title>Recycle&#45;&gt;OSCalls</title>
<path fill="none" stroke="black" d="M140.27,-99.22C153.74,-87.49 171.91,-71.66 186.84,-58.65"/>
<polygon fill="black" stroke="black" points="189.51,-60.97 194.76,-51.76 184.92,-55.69 189.51,-60.97"/>
</g>
<!-- Config -->
<g id="node18" class="node">
<title>Config</title>
<ellipse fill="none" stroke="black" cx="1331" cy="-272" rx="60.39" ry="18"/>
<text text-anchor="middle" x="1331" y="-268.3" font-family="Times,serif" font-size="14.00">config.json</text>
</g>
<!-- Config&#45;&gt;RulesEngine -->
<g id="edge21" class="edge">
<title>Config&#45;&gt;RulesEngine</title>
<path fill="none" stroke="black" d="M1295.71,-257.26C1284.7,-253.28 1272.44,-249.16 1261,-246 1208.79,-231.59 1148.62,-219.88 1103.35,-212.02"/>
<polygon fill="black" stroke="black" points="1103.8,-208.54 1093.35,-210.3 1102.61,-215.44 1103.8,-208.54"/>
</g>
<!-- Log -->
<g id="node19" class="node">
<title>Log</title>
<ellipse fill="none" stroke="black" cx="1191" cy="-272" rx="61.19" ry="18"/>
<text text-anchor="middle" x="1191" y="-268.3" font-family="Times,serif" font-size="14.00">actions.log</text>
</g>
<!-- Log&#45;&gt;Undo -->
<g id="edge22" class="edge">
<title>Log&#45;&gt;Undo</title>
<path fill="none" stroke="black" d="M1154.96,-257.37C1143.29,-253.3 1130.2,-249.1 1118,-246 1045.91,-227.67 1026.2,-231.2 953,-218 946.34,-216.8 939.41,-215.52 932.49,-214.23"/>
<polygon fill="black" stroke="black" points="932.85,-210.74 922.37,-212.33 931.56,-217.62 932.85,-210.74"/>
</g>
<!-- Index -->
<g id="node20" class="node">
<title>Index</title>
<ellipse fill="none" stroke="black" cx="1483" cy="-272" rx="73.39" ry="18"/>
<text text-anchor="middle" x="1483" y="-268.3" font-family="Times,serif" font-size="14.00">Index / Cache</text>
</g>
<!-- Index&#45;&gt;SearchIndex -->
<g id="edge23" class="edge">
<title>Index&#45;&gt;SearchIndex</title>
<path fill="none" stroke="black" d="M1483,-253.75C1483,-227.46 1483,-177.13 1483,-145.69"/>
<polygon fill="black" stroke="black" points="1486.5,-145.43 1483,-135.43 1479.5,-145.43 1486.5,-145.43"/>
</g>
</g>
</svg>
